<svg width="580" height="580" viewBox="0 0 580 580" fill="none" xmlns="http://www.w3.org/2000/svg">
<path d="M24 290C24 143.447 142.821 24 289.203 24C435.584 24 554.405 143.447 554.405 290C554.405 436.553 435.584 556 289.203 556C142.821 556 24 436.553 24 290Z" fill="#2A2A2A" stroke="white" stroke-width="48"/>
<g filter="url(#filter0_d_4439_1195)">
<path d="M485.29 151.071C475.044 197.304 434.488 220.848 434.488 220.848C382.832 130.095 262.157 121.429 195.464 178.313C128.772 235.196 111.206 341.56 185.4 417.504C185.4 417.504 160.092 466.487 206.505 528.825" stroke="#BFAD89" stroke-width="28" stroke-linecap="round"/>
</g>
<g filter="url(#filter1_d_4439_1195)">
<path d="M406.538 258.74C368.111 179.075 289.703 173.028 237.631 203.233C185.559 233.438 153.156 320.529 218.698 388.957" stroke="#BFAD89" stroke-width="24"/>
</g>
<g filter="url(#filter2_d_4439_1195)">
<ellipse cx="298.579" cy="302.763" rx="49.8625" ry="50" fill="#BFAD89"/>
</g>
<path d="M223.739 552.351C110.411 313.841 501.344 322.329 496.981 127.884" stroke="white" stroke-width="48"/>
<path d="M318.558 391.571H389.875H461.193" stroke="#CBCBCB" stroke-width="12" stroke-linecap="round"/>
<path d="M266.825 455.402H318.558H370.29" stroke="#CBCBCB" stroke-width="12" stroke-linecap="round"/>
<defs>
<filter id="filter0_d_4439_1195" x="113.098" y="118.552" width="396.182" height="434.287" filterUnits="userSpaceOnUse" color-interpolation-filters="sRGB">
<feFlood flood-opacity="0" result="BackgroundImageFix"/>
<feColorMatrix in="SourceAlpha" type="matrix" values="0 0 0 0 0 0 0 0 0 0 0 0 0 0 0 0 0 0 127 0" result="hardAlpha"/>
<feOffset/>
<feGaussianBlur stdDeviation="5"/>
<feComposite in2="hardAlpha" operator="out"/>
<feColorMatrix type="matrix" values="0 0 0 0 0.846729 0 0 0 0 0.787625 0 0 0 0 0.669417 0 0 0 1 0"/>
<feBlend mode="normal" in2="BackgroundImageFix" result="effect1_dropShadow_4439_1195"/>
<feBlend mode="normal" in="SourceGraphic" in2="effect1_dropShadow_4439_1195" result="shape"/>
</filter>
<filter id="filter1_d_4439_1195" x="160.02" y="164.429" width="267.314" height="242.851" filterUnits="userSpaceOnUse" color-interpolation-filters="sRGB">
<feFlood flood-opacity="0" result="BackgroundImageFix"/>
<feColorMatrix in="SourceAlpha" type="matrix" values="0 0 0 0 0 0 0 0 0 0 0 0 0 0 0 0 0 0 127 0" result="hardAlpha"/>
<feOffset/>
<feGaussianBlur stdDeviation="5"/>
<feComposite in2="hardAlpha" operator="out"/>
<feColorMatrix type="matrix" values="0 0 0 0 0.768627 0 0 0 0 0.701961 0 0 0 0 0.568627 0 0 0 1 0"/>
<feBlend mode="normal" in2="BackgroundImageFix" result="effect1_dropShadow_4439_1195"/>
<feBlend mode="normal" in="SourceGraphic" in2="effect1_dropShadow_4439_1195" result="shape"/>
</filter>
<filter id="filter2_d_4439_1195" x="238.717" y="242.763" width="119.725" height="120" filterUnits="userSpaceOnUse" color-interpolation-filters="sRGB">
<feFlood flood-opacity="0" result="BackgroundImageFix"/>
<feColorMatrix in="SourceAlpha" type="matrix" values="0 0 0 0 0 0 0 0 0 0 0 0 0 0 0 0 0 0 127 0" result="hardAlpha"/>
<feOffset/>
<feGaussianBlur stdDeviation="5"/>
<feComposite in2="hardAlpha" operator="out"/>
<feColorMatrix type="matrix" values="0 0 0 0 0.768627 0 0 0 0 0.701961 0 0 0 0 0.568627 0 0 0 1 0"/>
<feBlend mode="normal" in2="BackgroundImageFix" result="effect1_dropShadow_4439_1195"/>
<feBlend mode="normal" in="SourceGraphic" in2="effect1_dropShadow_4439_1195" result="shape"/>
</filter>
</defs>
</svg>
